<?xml version="1.0" encoding="UTF-8"?> <svg xmlns="http://www.w3.org/2000/svg" width="180" height="85.232" viewBox="0 0 180 85.232"><path d="M93.473,38.471h6.772V35.736H93.473V31.924h7.778V29.189H89.986V45.2h3.487Zm15.065,7.018a5.722,5.722,0,0,0,6.1-6.076,6.09,6.09,0,1,0-12.18,0,5.716,5.716,0,0,0,6.079,6.076m0-9.619c2.011,0,2.7,1.682,2.7,3.543,0,1.839-.693,3.52-2.7,3.52-1.989,0-2.682-1.682-2.682-3.52,0-1.861.693-3.543,2.682-3.543m48.567,18.6a4.186,4.186,0,0,0-3.218-1.345c-3.33,0-5.454,2.915-5.454,6.166,0,3.094,1.967,6.031,5.431,6.031a4.66,4.66,0,0,0,3.889-1.951l.514,1.659H160.5V53.443h-3.4Zm-2.436,8.3c-2.1,0-2.839-1.771-2.839-3.587,0-1.839.783-3.5,2.794-3.5,2.168,0,2.861,1.749,2.861,3.565,0,1.794-.671,3.52-2.816,3.52m8.069,2.264h3.4V49.026h-3.4Zm-18.1,0V56h2.794V53.443h-2.794v-3.5h-3.4v3.5h-2.615V56h2.615v9.036ZM130.665,30.354l1.385,1.816h2.615l-2.458-3.184H129.3L126.82,32.17h2.414Zm0,15.134c2.95,0,5.073-1.5,5.811-3.968h-3.487a2.205,2.205,0,0,1-2.213,1.413,2.643,2.643,0,0,1-2.749-2.668h8.716a5.879,5.879,0,0,0-6.079-6.951,5.723,5.723,0,0,0-6.079,6.1,5.717,5.717,0,0,0,6.079,6.076m0-9.619a2.624,2.624,0,0,1,2.66,2.578h-5.275c.2-1.435.916-2.578,2.615-2.578m-10.907,3.7a3.38,3.38,0,0,1,2.079-3.229,2.954,2.954,0,0,1,2.146-.09V33.4a4.113,4.113,0,0,0-.916-.112,3.671,3.671,0,0,0-3.576,2.108l-.782-1.794H116.36V45.2h3.4Zm6.436,13.582a4.661,4.661,0,0,0-3.889,1.951l-.514-1.659h-2.235V69.452h3.4V64a4.188,4.188,0,0,0,3.218,1.345c3.33,0,5.454-2.915,5.454-6.166,0-3.094-1.967-6.031-5.431-6.031m-.76,9.641c-2.168,0-2.861-1.749-2.861-3.565,0-1.794.671-3.52,2.816-3.52,2.1,0,2.838,1.771,2.838,3.587,0,1.839-.782,3.5-2.794,3.5m48.412-9.641a5.723,5.723,0,0,0-6.079,6.1,5.717,5.717,0,0,0,6.079,6.076c2.95,0,5.073-1.5,5.811-3.969H176.17a2.2,2.2,0,0,1-2.213,1.413,2.643,2.643,0,0,1-2.749-2.668h8.716a5.879,5.879,0,0,0-6.079-6.951m-2.615,5.134c.2-1.435.916-2.578,2.615-2.578a2.624,2.624,0,0,1,2.66,2.578ZM139.985,45.2h3.4V36.161h2.794V33.605h-2.794v-3.5h-3.4v3.5H137.37v2.556h2.615Zm-9.32,27.793a6.087,6.087,0,0,0,0,12.175c2.95,0,5.073-1.5,5.811-3.969h-3.487a2.2,2.2,0,0,1-2.213,1.413,2.643,2.643,0,0,1-2.749-2.668h8.716a5.879,5.879,0,0,0-6.079-6.951m-2.615,5.134c.2-1.435.916-2.578,2.615-2.578a2.624,2.624,0,0,1,2.66,2.578ZM108.537,72.99a6.087,6.087,0,1,0,6.1,6.1,5.722,5.722,0,0,0-6.1-6.1m0,9.619c-1.989,0-2.682-1.681-2.682-3.52,0-1.861.693-3.543,2.682-3.543,2.011,0,2.7,1.682,2.7,3.543,0,1.839-.693,3.52-2.7,3.52m8.85-29.165h-3.4v1.031a4.186,4.186,0,0,0-3.218-1.345c-3.33,0-5.454,2.915-5.454,6.166,0,3.094,1.967,6.031,5.431,6.031a4.66,4.66,0,0,0,3.889-1.951l.515,1.659h2.235Zm-5.833,9.327c-2.1,0-2.839-1.771-2.839-3.587,0-1.839.782-3.5,2.794-3.5,2.168,0,2.861,1.749,2.861,3.565,0,1.794-.67,3.52-2.816,3.52M135.224,48.4A1.906,1.906,0,1,0,137.1,50.3a1.911,1.911,0,0,0-1.877-1.906M133.48,65.035h3.4V53.443h-3.4Zm-13.991,10.04-.782-1.794H116.36V84.873h3.4V79.245a3.38,3.38,0,0,1,2.079-3.229,2.954,2.954,0,0,1,2.146-.09V73.08a4.1,4.1,0,0,0-.916-.112,3.671,3.671,0,0,0-3.576,2.108M141.5,76.488c0-.583.536-1.1,1.766-1.1,1.453,0,1.922.762,1.922,1.457h2.861c0-2.937-2.816-3.834-4.894-3.834-2.905,0-4.694,1.727-4.694,3.744,0,3.879,6.616,3.162,6.616,5,0,.471-.447,1.121-1.766,1.121-1.43,0-2.034-.65-2.034-1.547h-2.906c0,2.713,2.436,3.9,4.873,3.9,2.995,0,4.939-1.637,4.939-3.744,0-3.834-6.683-2.96-6.683-5M100.424,59.632c-.514,1.681-1.654,3.049-3.62,3.049-2.906,0-4.045-2.848-4.045-5.583,0-2.87,1.14-5.718,4.045-5.718a3.7,3.7,0,0,1,3.486,2.668l3.6-.112A7.134,7.134,0,0,0,96.8,48.645c-4.739,0-7.532,3.7-7.532,8.453,0,4.619,2.794,8.318,7.532,8.318a7.179,7.179,0,0,0,7.2-5.673Zm54.737,10.152h-3.4v3.5h-2.615v2.556h2.615v9.036h3.4V75.838h2.794V73.281h-2.794ZM89.986,84.873h3.487V78.147h6.772V75.411H93.473V71.6h7.778V68.864H89.986ZM65.575,32.383c.921-5.3-2.519-10.327-7.371-12.207C52.44,17.893,45.83,20,43.545,26.056a11.576,11.576,0,0,0,4.206,13.292c-.094.093-.19.187-.288.281A21.28,21.28,0,0,0,43.716,44.1c-.132.206-.268.418-.412.635-.443-1.384-.893-2.686-1.328-3.947C40.15,35.5,38.519,30.771,38.448,23.072a11.208,11.208,0,0,0,3.245-.194c5.249-1.093,8.642-6.154,8.6-11.372C50.277,5.283,45.9-.093,39.44,0A11.549,11.549,0,0,0,28.556,9.335a11.431,11.431,0,0,0,8.622,13.549,42.852,42.852,0,0,0,.169,7.692,80.742,80.742,0,0,0,2.458,12.042c.425,1.616.791,3.011,1.042,4.244.154.76.3,1.541.42,2.322a23.944,23.944,0,0,0-5.841-3.338c-.286-.13-.576-.258-.874-.389a10.7,10.7,0,0,0-.264-12.831,9.876,9.876,0,0,0-6.2-3.663A13.859,13.859,0,0,0,16.552,16.178a14.424,14.424,0,0,0-14.08,6.684A15.53,15.53,0,0,0,.016,30.527a13.159,13.159,0,0,0,5.026,11.03,13.37,13.37,0,0,0,6.229,2.73q.1,1.265.315,2.565a30.374,30.374,0,0,0,2.666,8.431,60.982,60.982,0,0,0,4.1,6.848C20.412,65.2,21.9,67.425,22.6,72.46a20.375,20.375,0,0,1-.211,6.916,17.665,17.665,0,0,1-2.516,5.563H27.3a10.618,10.618,0,0,0,2.083-4.917,20.382,20.382,0,0,0-.067-6.441c-.734-4.794-3.263-7.646-6.465-11.257A70.8,70.8,0,0,1,16.9,54.908a24.173,24.173,0,0,1-3.491-7.6,25.949,25.949,0,0,1-.574-2.854,14.421,14.421,0,0,0,2.4-.088A9.648,9.648,0,0,0,18.4,48.819a10.01,10.01,0,0,0,7.219,2.126,12.242,12.242,0,0,0,5.941-2.389A12.727,12.727,0,0,0,33.6,46.688l.473.217c4.348,1.977,5.906,3.223,7.566,5.106.914,8.725-.492,16.432-1.982,24.593-.489,2.676-.993,5.444-1.435,8.336h9.56c.051-4.638.046-10.758-.413-17.31a100.969,100.969,0,0,0-3.1-19.678q-.075-.27-.151-.535l.011-.027a20.459,20.459,0,0,1,4.234-6.839l.443-.522a11.234,11.234,0,0,0,16.77-7.645m-27.169-16.6a35.294,35.294,0,0,0-1.022,5.04,9.957,9.957,0,0,1-7.034-5.541,9.531,9.531,0,0,1-.129-7.606C32.271,2.7,38.27.645,43.113,2.609a10.616,10.616,0,0,1,5.43,4.579,8.823,8.823,0,0,1,1.115,4.318c.027,4.786-3.828,8.579-8.361,9.359a9.625,9.625,0,0,1-2.831.128c.04-1.583.143-3.287.317-5.137a.188.188,0,0,0-.157-.208.187.187,0,0,0-.22.136M12.659,42.9a36.243,36.243,0,0,1,.257-8.195.264.264,0,0,0-.512-.121A23.322,23.322,0,0,0,11.19,42.6a13.726,13.726,0,0,1-9.584-9.623,12.671,12.671,0,0,1-.455-4.05A11.6,11.6,0,0,1,3,23.207a11.958,11.958,0,0,1,8.308-5.3,13.452,13.452,0,0,1,12.845,5.363c5.294,7.322,1.44,17.835-7.53,19.537a12.148,12.148,0,0,1-3.967.091m20.719,2.049a30.334,30.334,0,0,1-6.344-3.432.239.239,0,0,0-.335.335,15.781,15.781,0,0,0,5.81,4.318,8.58,8.58,0,0,1-2.984,2.278,10.867,10.867,0,0,1-9.039-.419,12.026,12.026,0,0,1-4.37-3.8A14.629,14.629,0,0,0,27.8,32.874a13.762,13.762,0,0,0,.319-2.949c.086.041.171.082.255.124a11.933,11.933,0,0,1,2.616,1.781A11.384,11.384,0,0,1,32.721,33.8a10.634,10.634,0,0,1,.657,11.145m16.174-5.816a20.7,20.7,0,0,0,3.387-5.662.185.185,0,0,0-.323-.175,42.184,42.184,0,0,1-4.07,5.242,9.033,9.033,0,0,1-1.284-1.055c-3.858-3.745-3.552-10.1.053-13.889a10.6,10.6,0,0,1,6.244-3.377,8.743,8.743,0,0,1,4.413.551c4.445,1.738,6.54,6.73,5.592,11.246a10.079,10.079,0,0,1-9.206,8.152,9.428,9.428,0,0,1-4.806-1.032M75.953.625A14.262,14.262,0,0,0,61.128,11.193a14.636,14.636,0,0,0,.425,9.127,13.991,13.991,0,0,0,14.276,9,32.528,32.528,0,0,1-1.517,6.739,38.669,38.669,0,0,1-5.349,10.01c-2.484,3.53-4.78,6.273-6.8,8.694-4.277,5.113-7.368,8.806-8.411,15.408a25.468,25.468,0,0,0-.076,8.432,13.471,13.471,0,0,0,2.816,6.339h9.519a20.105,20.105,0,0,1-2.916-6.9,25.871,25.871,0,0,1-.361-9.328c.933-6.531,2.928-9.412,5.687-13.4a78.565,78.565,0,0,0,5.492-8.879A38.554,38.554,0,0,0,77.5,35.376a35.844,35.844,0,0,0,.506-6.448,13.25,13.25,0,0,0,2.029-.724,14.491,14.491,0,0,0,8.2-13.286,15.535,15.535,0,0,0-2.089-7.773A13.1,13.1,0,0,0,75.953.625M83.5,23.9a13.518,13.518,0,0,1-5.59,2.958A28.455,28.455,0,0,0,76.279,19.3a.32.32,0,0,0-.618.154,40.5,40.5,0,0,1,.348,7.748,12.839,12.839,0,0,1-6.2-.808A12.413,12.413,0,0,1,65.551,5.89c4.948-4.729,12.943-4.448,17.933.065A12.628,12.628,0,0,1,86.06,9.107,11.6,11.6,0,0,1,87.6,14.919,12.016,12.016,0,0,1,83.5,23.9" transform="translate(0 0)" fill="#0c3e35"></path></svg> 